<?xml version="1.0" encoding="utf-8"?>
<!-- Generator: Adobe Illustrator 24.1.2, SVG Export Plug-In . SVG Version: 6.00 Build 0)  -->
<svg version="1.1" id="Layer_1" focusable="false" xmlns="http://www.w3.org/2000/svg" xmlns:xlink="http://www.w3.org/1999/xlink"
	 x="0px" y="0px" viewBox="0 0 512 512" style="enable-background:new 0 0 512 512;" xml:space="preserve">
<style type="text/css">
	.st0{fill:#FFFFFF;}
</style>
<path class="st0" d="M342.7,144H464v288H48V144h121.3l24-64h125.5L342.7,144L342.7,144z M324.3,32h-131c-20,0-37.9,12.4-44.9,31.1
	L136,96H48c-26.5,0-48,21.5-48,48v288c0,26.5,21.5,48,48,48h416c26.5,0,48-21.5,48-48V144c0-26.5-21.5-48-48-48h-88l-14.3-38
	C355.9,42.3,341,32,324.3,32L324.3,32z M256,408c-66.2,0-120-53.8-120-120s53.8-120,120-120s120,53.8,120,120S322.2,408,256,408z
	 M256,216c-39.7,0-72,32.3-72,72s32.3,72,72,72s72-32.3,72-72S295.7,216,256,216z"/>
</svg>
